<svg xmlns="http://www.w3.org/2000/svg" viewBox="0 0 500 500"><g id="freepik--Character--inject-158"><rect x="144.15" y="315.71" width="256.35" height="50.58" transform="translate(544.65 682) rotate(180)" style="fill:#FD9C35"></rect><rect x="144.15" y="315.71" width="256.35" height="50.58" transform="translate(544.65 682) rotate(180)" style="opacity:0.2"></rect><rect x="352.64" y="315.71" width="25.05" height="50.58" transform="translate(730.33 682) rotate(180)" style="fill:#FD9C35"></rect><rect x="332.9" y="315.71" width="10.45" height="50.58" transform="translate(676.25 682) rotate(180)" style="fill:#FD9C35"></rect><rect x="167.46" y="315.71" width="25.05" height="50.58" transform="translate(359.96 682) rotate(180)" style="fill:#FD9C35"></rect><rect x="-17.9" y="295.93" width="256.35" height="37.6" transform="translate(-222.22 340.46) rotate(-75.12)" style="fill:#FD9C35"></rect><rect x="73.9" y="385.65" width="25.05" height="37.6" transform="translate(-326.65 384.09) rotate(-75.12)" style="fill:#37474f"></rect><rect x="121.47" y="206.68" width="25.05" height="37.6" transform="matrix(0.26, -0.97, 0.97, 0.26, -118.34, 297.06)" style="fill:#37474f"></rect><rect x="116.16" y="418.15" width="296.89" height="25.29" transform="translate(529.2 861.6) rotate(180)" style="fill:#FD9C35"></rect><g style="opacity:0.2"><rect x="145.77" y="418.15" width="12.11" height="25.29" transform="translate(303.65 861.6) rotate(180)"></rect><rect x="165.98" y="418.15" width="1.59" height="25.29" transform="translate(333.56 861.6) rotate(180)"></rect><rect x="136.08" y="418.15" width="1.59" height="25.29" transform="translate(273.75 861.6) rotate(180)"></rect><rect x="352.34" y="418.15" width="12.11" height="25.29" transform="translate(716.78 861.6) rotate(180)"></rect><rect x="372.55" y="418.15" width="1.59" height="25.29" transform="translate(746.69 861.6) rotate(180)"></rect><rect x="379.51" y="418.15" width="1.59" height="25.29" transform="translate(760.61 861.6) rotate(180)"></rect><rect x="386.47" y="418.15" width="1.59" height="25.29" transform="translate(774.53 861.6) rotate(180)"></rect><rect x="342.64" y="418.15" width="1.59" height="25.29" transform="translate(686.87 861.6) rotate(180)"></rect></g><rect x="139.85" y="277.97" width="177.82" height="37.74" style="fill:#a6a6a6"></rect><rect x="317.67" y="277.97" width="101.38" height="37.74" style="fill:#a6a6a6"></rect><rect x="139.85" y="281.89" width="177.82" height="29.91" style="fill:#fff"></rect><path d="M151.36,288q20.79-.32,41.58-.44l41.58-.13,41.57.13q20.79.12,41.58.44-20.79.31-41.58.45l-41.57.13-41.58-.14Q172.15,288.38,151.36,288Z" style="fill:#dbdbdb"></path><path d="M151.36,293.91q20.79-.32,41.58-.44l41.58-.14,41.57.14q20.79.11,41.58.44-20.79.31-41.58.44l-41.57.13-41.58-.13Q172.15,294.23,151.36,293.91Z" style="fill:#dbdbdb"></path><path d="M151.36,299.78q20.79-.33,41.58-.45l41.58-.13,41.57.13q20.79.12,41.58.45-20.79.32-41.58.44l-41.57.13-41.58-.13Q172.15,300.1,151.36,299.78Z" style="fill:#dbdbdb"></path><path d="M151.36,305.64q20.79-.31,41.58-.44l41.58-.13,41.57.13q20.79.12,41.58.44-20.79.33-41.58.45l-41.57.13-41.58-.14Q172.15,306,151.36,305.64Z" style="fill:#dbdbdb"></path><rect x="241.4" y="366.29" width="198.97" height="51.87" transform="translate(681.76 784.44) rotate(180)" style="fill:#455a64"></rect><rect x="136.76" y="366.29" width="104.64" height="51.87" transform="translate(378.15 784.44) rotate(180)" style="fill:#455a64"></rect><rect x="241.4" y="371.67" width="198.97" height="41.1" transform="translate(681.76 784.44) rotate(180)" style="fill:#fff"></rect><path d="M430.73,404.32q-17.43.31-34.84.44l-84.83.13-34.83-.13q-17.42-.12-34.83-.44,17.41-.33,34.83-.45l34.83-.13,84.83.13Q413.31,404,430.73,404.32Z" style="fill:#dbdbdb"></path><path d="M430.73,396.25q-17.43.31-34.84.44l-84.83.14-34.83-.13q-17.42-.12-34.83-.45,17.41-.31,34.83-.44l34.83-.13,84.83.13Q413.31,395.93,430.73,396.25Z" style="fill:#dbdbdb"></path><path d="M430.73,388.19q-17.43.31-34.84.44l-84.83.13-34.83-.13q-17.42-.12-34.83-.44,17.41-.31,34.83-.44l34.83-.14,84.83.14Q413.31,387.86,430.73,388.19Z" style="fill:#dbdbdb"></path><path d="M430.73,380.13q-17.43.31-34.84.44l-84.83.13-34.83-.13q-17.42-.12-34.83-.44,17.41-.33,34.83-.45l34.83-.13,84.83.13Q413.31,379.8,430.73,380.13Z" style="fill:#dbdbdb"></path><path d="M437.34,79.71s-4.81,8.69-9.34,8.11l-1-.16s0,0,0,0c-6.78-2-13.15-5.21-19.77-7.62a52.89,52.89,0,0,0-15.63-3.54,35.14,35.14,0,0,0-14.84,2.66,45.05,45.05,0,0,0-16.22,11.66,67.63,67.63,0,0,0-7.44,8.43c-5.9-3.1-13.57-3.5-18.69.55a29.86,29.86,0,0,0-21.18-7.87A29.34,29.34,0,0,0,300,95.8l-.52.31.33-.25c4.48-3.15,9.51-5.69,15.09-5.81s10.94,1.75,15.64,4.36c0,0,0,0,0,0-4.53-2.62-9.33-4.67-14.64-4.85-5.07-.17-9.8,1.6-14.06,4.24a84.5,84.5,0,0,0-8,5.93c-2.39,1.62-4.78,3.25-7.3,4.67-4.64,2.59-10.14,5.12-15.37,3.55-16.29-4.89-43.57-40.39-64.32-22.41a.09.09,0,0,0-.12-.12c-10.13,3.15-19.68,14.3-20.3,25.32-1.35,23.76,24.4,45.76,24.62,51.11.31,7.5-1.12,15-1.15,22.45-.54,5.48-.67,11,.74,16.36a24.81,24.81,0,0,0,16.87,17.44c.16,0,.2-.2.05-.25a24.89,24.89,0,0,1-12.58-9.34c-3.75-5.4-4.78-11.74-4.72-18.12l.06.53c3,23.36,24.92,26.29,29.19,27.15a55.86,55.86,0,0,0-2.21,12c-.54,9.4,3.19,17.56,11.07,22.85,8.27,5.54,16.23,1.41,16.72,1.51a12.47,12.47,0,0,0,6.61,10.26,15.68,15.68,0,0,0,9.4,1.54c20.62,6.71,41.69-7.49,49.54-32.15,0,0,28.57,1.9,33.08-33.4,0,0,52.57-19.23,54.73-79C418.41,121.67,446.13,106.2,437.34,79.71Zm-68.66,4.64a36.75,36.75,0,0,1,26.76-6.89c10.9,1.62,20.8,7.14,31.33,10.16a78,78,0,0,1-11.86-3.53,112.34,112.34,0,0,0-15.28-4c-8.5-1.6-17.72-2.24-25.78,1.45A41.42,41.42,0,0,0,368.68,84.35ZM265.35,254.53a19.16,19.16,0,0,0,13.95,11,14.2,14.2,0,0,1-6.74-1.22A12.43,12.43,0,0,1,265.35,254.53Z" style="fill:#263238"></path><path d="M329,233.73a25,25,0,0,0,8.7.92A22,22,0,0,0,346,232.4a25.79,25.79,0,0,0,6.93-5.15,46.8,46.8,0,0,0,5.46-6.93,29,29,0,0,1-4.7,7.62,25,25,0,0,1-3.25,3.17,24.24,24.24,0,0,1-3.85,2.47,20.25,20.25,0,0,1-8.83,2.09A19.27,19.27,0,0,1,329,233.73Z" style="fill:#263238"></path><path d="M203.9,87.19a48.69,48.69,0,0,0-6.14,7.38,39.3,39.3,0,0,0-4.43,8.47,24.8,24.8,0,0,0-1.63,9.36,39.86,39.86,0,0,0,1.15,9.48A50.91,50.91,0,0,0,201.07,139c1.82,2.63,3.79,5.16,5.7,7.75a49,49,0,0,1,5.14,8.18l.48,1.12.41,1.15a10.34,10.34,0,0,1,.39,2.45,37.18,37.18,0,0,1-.09,4.84c-.22,3.21-.6,6.4-.93,9.59-.64,6.36-1.22,12.78-.58,19.13a22.63,22.63,0,0,0,2.67,9.08,30.67,30.67,0,0,0,6,7.36A48.87,48.87,0,0,0,228,215.4a58.39,58.39,0,0,0,8.58,4.32,58.06,58.06,0,0,1-8.66-4.19,48.3,48.3,0,0,1-7.81-5.62,30.89,30.89,0,0,1-6.18-7.39,23.11,23.11,0,0,1-2.8-9.22,59.85,59.85,0,0,1-.25-9.65c.13-3.21.42-6.41.74-9.6s.68-6.38.9-9.57a37.87,37.87,0,0,0,.07-4.76,10.23,10.23,0,0,0-.37-2.3l-.4-1.11-.46-1.09a49.06,49.06,0,0,0-5.06-8.09c-1.89-2.58-3.85-5.12-5.68-7.77-3.65-5.27-6.79-11.05-8.22-17.37a40.25,40.25,0,0,1-1.08-9.59,25.07,25.07,0,0,1,1.74-9.46,39.83,39.83,0,0,1,4.6-8.46A48.38,48.38,0,0,1,203.9,87.19Z" style="fill:#37474f"></path><path d="M207.53,84.61a26.2,26.2,0,0,1,4.33-.48,31.76,31.76,0,0,1,4.36.12,31.42,31.42,0,0,1,8.49,2,30.54,30.54,0,0,1,7.57,4.36c2.28,1.8,4.52,3.65,6.78,5.48,4.52,3.65,9.06,7.27,13.87,10.5a78,78,0,0,0,7.45,4.46,36.71,36.71,0,0,0,8,3.12,18.45,18.45,0,0,0,4.24.54,11.12,11.12,0,0,0,4.16-.72,32.9,32.9,0,0,0,7.36-4.45c4.63-3.47,9.1-7.27,14.26-10.06a34.35,34.35,0,0,1,8.12-3.24,27.14,27.14,0,0,1,8.7-.74,30.12,30.12,0,0,1,8.49,2,47.58,47.58,0,0,1,7.77,3.93,48.61,48.61,0,0,0-7.82-3.79,30.33,30.33,0,0,0-8.46-1.83,26.68,26.68,0,0,0-8.58.82,33.29,33.29,0,0,0-8,3.28,65.1,65.1,0,0,0-7.23,4.79c-2.33,1.73-4.58,3.55-6.91,5.3a33.86,33.86,0,0,1-7.5,4.56,11.88,11.88,0,0,1-4.37.77,18,18,0,0,1-4.39-.55,37,37,0,0,1-8.16-3.2,77.94,77.94,0,0,1-7.49-4.52c-4.82-3.27-9.38-6.89-13.86-10.59-2.24-1.85-4.46-3.73-6.72-5.55a30.27,30.27,0,0,0-7.44-4.38,31.06,31.06,0,0,0-8.39-2.12,33.11,33.11,0,0,0-4.34-.2A27.36,27.36,0,0,0,207.53,84.61Z" style="fill:#37474f"></path><path d="M243.6,217.24a37,37,0,0,0-1.72,6,36.61,36.61,0,0,0-.74,6.17,26.2,26.2,0,0,0,2.23,12.05,21.85,21.85,0,0,0,3.33,5.17,26.49,26.49,0,0,0,2.15,2.22c.38.34.79.65,1.19,1l.59.49.64.45a40.65,40.65,0,0,0,11.17,5.4c-1-.29-2-.57-3-.88s-2-.7-2.94-1.12-1.92-.83-2.82-1.37L252.3,252l-1.31-.87-.66-.43-.62-.49c-.41-.33-.83-.65-1.23-1a27.72,27.72,0,0,1-2.22-2.25,22.34,22.34,0,0,1-3.46-5.29,26.16,26.16,0,0,1-2.15-12.33A35,35,0,0,1,243.6,217.24Z" style="fill:#37474f"></path><path d="M288.26,220.2a85.27,85.27,0,0,0,19.88,7.57,52.86,52.86,0,0,0,21.09,1.16,32.66,32.66,0,0,0,10-3.44c.39-.21.79-.4,1.17-.63l1.1-.73a17.93,17.93,0,0,0,2.15-1.54c.67-.57,1.38-1.1,2-1.7l1.86-1.89a9.07,9.07,0,0,0,.86-1l.83-1,.83-1c.26-.36.49-.74.73-1.1l1.45-2.23,1.24-2.34.62-1.17c.19-.4.35-.82.52-1.22l1-2.45a10.84,10.84,0,0,0,.46-1.24l.42-1.26.84-2.52,0-.14.13,0a90.09,90.09,0,0,0,11.16-5.79,107.79,107.79,0,0,0,10.38-7.13,96.33,96.33,0,0,0,24.83-28.2,97.15,97.15,0,0,0,5.48-11.35,95.44,95.44,0,0,0,6.12-24.41,95.13,95.13,0,0,1-5.81,24.53,95.52,95.52,0,0,1-5.46,11.41,100.45,100.45,0,0,1-7,10.55,102.74,102.74,0,0,1-17.82,17.91A106.53,106.53,0,0,1,369,194.94a82,82,0,0,1-11.25,5.82l.17-.19-.86,2.54-.43,1.27a11.05,11.05,0,0,1-.47,1.25l-1.06,2.47c-.17.41-.34.82-.53,1.23l-.63,1.18-1.27,2.37-1.47,2.24c-.25.37-.49.75-.75,1.12l-.85,1-.84,1a9.47,9.47,0,0,1-.88,1l-1.9,1.9c-.65.61-1.37,1.15-2.06,1.73a18.79,18.79,0,0,1-2.19,1.55l-1.12.74c-.39.22-.79.42-1.19.63a33,33,0,0,1-10.12,3.43A52.62,52.62,0,0,1,308.07,228a85,85,0,0,1-19.81-7.84Z" style="fill:#37474f"></path><path d="M200.74,132.7a43.52,43.52,0,0,0,7.09,8.52c2.61,2.64,5.29,5.22,7.66,8.11a24.54,24.54,0,0,1,3.12,4.67,11.72,11.72,0,0,1,.56,1.31,7.67,7.67,0,0,1,.42,1.36,14.23,14.23,0,0,1,.23,2.83,57.81,57.81,0,0,1-1.74,11.05c-.85,3.62-1.78,7.21-2.58,10.83a54.28,54.28,0,0,0-1.52,11,17.93,17.93,0,0,0,.18,2.74,24.69,24.69,0,0,0,.68,2.66,25,25,0,0,0,2.32,5,24.39,24.39,0,0,0,7.67,7.89,23.91,23.91,0,0,1-7.93-7.73,25.48,25.48,0,0,1-2.44-5,24.78,24.78,0,0,1-.74-2.72,20.35,20.35,0,0,1-.23-2.81,34.69,34.69,0,0,1,.43-5.58c.27-1.85.63-3.68,1-5.49.78-3.64,1.7-7.24,2.53-10.85a58.38,58.38,0,0,0,1.78-10.92,15.31,15.31,0,0,0-.2-2.71,8.6,8.6,0,0,0-.4-1.28,11.58,11.58,0,0,0-.53-1.26,26,26,0,0,0-3-4.61c-2.3-2.89-4.94-5.51-7.51-8.19-1.27-1.36-2.55-2.71-3.72-4.15A26.5,26.5,0,0,1,200.74,132.7Z" style="fill:#37474f"></path><path d="M344.22,193.53a81.87,81.87,0,0,0,11.11-3.62,101.55,101.55,0,0,0,10.6-4.89,100,100,0,0,0,19.19-13.17,97.08,97.08,0,0,0,8.28-8.2,101.2,101.2,0,0,0,7.15-9.21,91.3,91.3,0,0,0,5.89-10.07c.92-1.72,1.68-3.51,2.48-5.29.42-.88.74-1.8,1.1-2.7l1.07-2.73A89.86,89.86,0,0,1,401,154.71c-1.11,1.61-2.18,3.25-3.41,4.77s-2.45,3.05-3.71,4.55a98.38,98.38,0,0,1-8.29,8.3,99,99,0,0,1-19.39,13.12,100.23,100.23,0,0,1-10.71,4.75A77.24,77.24,0,0,1,344.22,193.53Z" style="fill:#37474f"></path><path d="M343.72,119.68a33.58,33.58,0,0,1,1.87-2.87q1-1.4,2-2.76,2.06-2.73,4.28-5.33a98.17,98.17,0,0,1,9.57-9.78,63,63,0,0,1,11.11-8,36.39,36.39,0,0,1,12.93-4.51,47.19,47.19,0,0,1,13.68.86c4.49.85,8.9,2,13.33,3a56.85,56.85,0,0,0,6.7,1.15,18.72,18.72,0,0,0,6.72-.38,10.36,10.36,0,0,0,5.56-3.63,17.72,17.72,0,0,0,2.95-6.1,17.68,17.68,0,0,1-2.83,6.19A10.53,10.53,0,0,1,426,91.39a19,19,0,0,1-6.84.48,57.12,57.12,0,0,1-6.77-1.08c-4.47-.93-8.87-2.12-13.34-2.93a46.73,46.73,0,0,0-13.49-.8,35.57,35.57,0,0,0-12.73,4.38,65.4,65.4,0,0,0-11.07,7.87,99.57,99.57,0,0,0-9.66,9.61c-1.51,1.7-3,3.44-4.39,5.23-.71.89-1.4,1.79-2.07,2.71S344.3,118.69,343.72,119.68Z" style="fill:#37474f"></path><path d="M318.19,234.18A36,36,0,0,1,311.4,236a47,47,0,0,1-7,.69,51.53,51.53,0,0,1-14-1.64,59.7,59.7,0,0,1-24.53-13.5,67,67,0,0,1-9.3-10.6c-1.39-1.9-2.63-3.9-3.85-5.92s-2.3-4.1-3.3-6.22A100.18,100.18,0,0,1,240.9,172a96.34,96.34,0,0,0,3.61,13.58,104.51,104.51,0,0,0,5.35,13,75.37,75.37,0,0,0,16.45,22.49,59.75,59.75,0,0,0,24.23,13.5,51.34,51.34,0,0,0,13.85,1.81,48.29,48.29,0,0,0,7-.54A36.2,36.2,0,0,0,318.19,234.18Z" style="fill:#37474f"></path><path d="M442.58,385.63c-3.2-.22-83.6-33.36-85.87-36.56-.24-.35,1.47-3.78,4.49-13.31.15-.46-.87-3-2.58-6.62-6.43-13.73-22.52-43.86-22.52-43.86l55.2-15.86L412,324.58l5.38,14.35S442.41,369.2,444.53,373,445.77,385.85,442.58,385.63Z" style="fill:#d3766a"></path><path d="M442.57,385.63c-3.19-.22-83.6-33.36-85.86-36.56-.24-.35,1.47-3.79,4.5-13.31a0,0,0,0,1,0,0c13.27,6.93,69,35.78,73.29,33.25,2.56-1.51,1-6.27-1.15-10.47,5.39,6.69,10.29,12.89,11.17,14.47C446.62,376.76,445.78,385.85,442.57,385.63Z" style="fill:#263238"></path><path d="M406.21,300.64l-9.29,4.1L367,318l-16.36,7.24s-22-56.07-33.57-71.71l0,0a20.43,20.43,0,0,0-2.16-2.52h0a12,12,0,0,0-4.13-1.45h0c-17.14-3.69-76-3.35-116.1-9.64l6-35.55,24-.82c1,1.26,4.37,4.6,5.73,4.43,43.64-5.45,99.88-15.34,122.14-1.5C378.49,222.59,406.21,300.64,406.21,300.64Z" style="fill:#37474f"></path><path d="M397.87,293.69c-9.34,3.83-6.71,2.61-16,6.54-4.54,1.92-27.43,11.53-31.37,14-.09.06,0,.21.07.18,4.53-1.17,27.2-11.27,31.71-13.28,9.22-4.1,6.53-3,15.71-7.21A.14.14,0,0,0,397.87,293.69Z" style="fill:#263238"></path><path d="M367,318l-16.36,7.24s-22-56.07-33.57-71.71Z" style="fill:#263238"></path><path d="M356.71,318.34c-5.62-11.7-30.83-69.23-36.65-71.93-5.29-2.46-115-10.2-116.64-10.34-.11,0-.14.17,0,.18,13,1,113.11,9.82,115.87,11.21,5.72,2.89,36,69.72,36.8,71.12C356.28,319,356.9,318.74,356.71,318.34Z" style="fill:#263238"></path><path d="M155.07,205.83s-6.86,39.29,8.07,57.52c21.05,25.71,156.4,18.74,177,12.08s21.24-39.89-1.27-47.59c-21.42-7.32-116.38-11.53-118.62-12.43s-9.18-11.49-9.18-11.49Z" style="fill:#37474f"></path><path d="M181.28,216.75c0-.16-.27-.11-.27,0a18.34,18.34,0,0,1-4.28,11.77c-3.16,3.64-7.81,5.68-12,7.81-.41.21-.1.84.32.71a37.36,37.36,0,0,0,7.44-3.2,18.21,18.21,0,0,0,5.6-4.65A16,16,0,0,0,181.28,216.75Z" style="fill:#263238"></path><path d="M219.33,213.35c-.94-1.21-2-2.35-3-3.52-2.32-2.76-4.65-5.53-7.08-8.19-.23-.26-.68.1-.47.38,1.64,2.14,3.37,4.21,5.08,6.3.87,1.07,1.75,2.14,2.63,3.2a19.86,19.86,0,0,1,2.46,3.12c.64,1.19-.2,2.2-1.43,2.33a4.23,4.23,0,0,1-3-1.09c-1.92-1.47-3.43-3.58-5-5.37-1-1.1-2-2.2-2.94-3.28s-2.18-2.25-3.23-3.41a.09.09,0,0,0-.14.12c.92,1.25,1.77,2.57,2.69,3.84s1.85,2.51,2.8,3.75,1.83,2.32,2.79,3.45a11.38,11.38,0,0,0,2.83,2.53c1.76,1,4.82,1.26,5.76-1A3.21,3.21,0,0,0,219.33,213.35Z" style="fill:#263238"></path><path d="M337.31,275.56c-7.09.13-14.17.54-21.26.69s-14.07.19-21.11.13q-21.19-.21-42.35-1.65c-14.25-1-29.61-2.4-43.76-4.36-6.77-.94-13.64-1.72-20.33-3.16a32.09,32.09,0,0,1-16-8.19c-9.16-8.89-12.73-22-14.19-34.44-.2-1.68-.36-3.36-.49-5,0-.11-.19-.11-.18,0,.83,12.81,2.82,26.16,10.87,36.45a32,32,0,0,0,13.12,10.18c6.34,2.54,13.37,3.14,20.06,4.05,14.21,1.92,29.63,3.41,43.92,4.52s28.8,1.81,43.22,2,28.85,0,43.25-.7c1.76-.08,3.51-.19,5.27-.34A.08.08,0,0,0,337.31,275.56Z" style="fill:#263238"></path><path d="M356.25,244.57a22.89,22.89,0,0,0-9.5-13.59c-5.1-3.48-11.21-5.07-17.25-5.95-6.84-1-13.76-1.5-20.64-2.17q-21.17-2.06-42.35-3.79c-14.12-1.16-44.52-3.53-46.23-3.59-.15,0-.18.25,0,.26,13.63,1.52,26,2.82,39.68,4.06s27.44,2.55,41.15,3.91q10.25,1,20.49,2.06c6.33.65,12.84,1.3,18.78,3.74,5.09,2.1,9.67,5.47,12.26,10.43a24.43,24.43,0,0,1,2,15.76A27.66,27.66,0,0,1,348.06,269a23.71,23.71,0,0,1-12.34,7.46c-1.25.26-2.76.46-3.91.69-.09,0-.18.2-.09.2,10.21.26,19.65-7.19,23.34-16.52A27.33,27.33,0,0,0,356.25,244.57Z" style="fill:#263238"></path><path d="M205.93,154.45c5.31,13.67,26.79,55,40.57,57,9.05,1.27,49.93,2.28,55.5-6.69,2.42-3.91-7.3-30.77-12-29.39s-35.21,1.51-38.83.75-25.34-26.25-36.08-35.25C198.5,127,201.76,143.71,205.93,154.45Z" style="fill:#d3766a"></path><path d="M218.23,187.48l20.21-27.09s-14.5-15.91-25.63-23c-8.5-5.39-12.16-1-10.8,5.51C206.56,164.71,218.23,187.48,218.23,187.48Z" style="fill:#FD9C35"></path><path d="M233.33,158.05C229.92,162,221,173,216.12,180.88c0,.05.14.18.18.14,5-6,14.23-18.54,17.28-22.77C233.64,158.17,233.39,158,233.33,158.05Z" style="fill:#263238"></path><path d="M210.52,146.63a1.17,1.17,0,1,1-1.16-1.17A1.16,1.16,0,0,1,210.52,146.63ZM221.6,166a1.17,1.17,0,1,0,1.17,1.16A1.16,1.16,0,0,0,221.6,166Z" style="fill:#fff"></path><path d="M232.16,168.8l-13.93,18.68S206.57,164.71,202,142.91c-.8-3.79.11-6.85,2.67-7.69Z" style="opacity:0.1"></path><path d="M222.24,190.5l2.31,13-69.48,2.37s14.48-53.65,27.85-67.39c9.05-9.3,19.34-8.3,25.73-1.45,1.62,1.73,17,24.61,18.81,34.69C229,180.57,222.24,190.5,222.24,190.5Z" style="fill:#d3766a"></path><path d="M157.78,191.6l48.27-.29,18.25,5.51-2.06-6.32s6.79-9.92,5.22-18.82c-1.82-10.08-17.2-33-18.81-34.7-6.39-6.85-16.69-7.83-25.73,1.46C173.65,148,162.78,175.53,157.78,191.6Z" style="fill:#FD9C35"></path><path d="M186,146.63a1.17,1.17,0,1,1-1.17-1.17A1.17,1.17,0,0,1,186,146.63Zm23.32-1.17a1.17,1.17,0,1,0,1.16,1.17A1.17,1.17,0,0,0,209.36,145.46Zm-49,40.79a1.17,1.17,0,1,0,1.17,1.17A1.16,1.16,0,0,0,160.38,186.25Zm24.49,0a1.17,1.17,0,1,0,1.17,1.17A1.16,1.16,0,0,0,184.87,186.25Zm24.49,0a1.17,1.17,0,1,0,1.16,1.17A1.17,1.17,0,0,0,209.36,186.25ZM172.63,166a1.17,1.17,0,1,0,1.16,1.16A1.16,1.16,0,0,0,172.63,166Zm24.48,0a1.17,1.17,0,1,0,1.17,1.16A1.16,1.16,0,0,0,197.11,166Zm24.49,0a1.17,1.17,0,1,0,1.17,1.16A1.16,1.16,0,0,0,221.6,166Z" style="fill:#fff"></path><path d="M199.15,184.58a51.59,51.59,0,0,1,8.92,1.85c1.46.47,2.88,1,4.3,1.59.71.29,1.43.55,2.14.8a8.12,8.12,0,0,0,2.3.55c.07,0,.07.13,0,.13a12.68,12.68,0,0,1-2.22-.07,11.87,11.87,0,0,1-2.1-.5c-1.48-.45-2.94-1-4.41-1.46-3-.95-5.94-1.9-9-2.59C199,184.85,199,184.56,199.15,184.58Z" style="fill:#263238"></path><path d="M191.71,187.77a53.2,53.2,0,0,1,7.46-.38,35.62,35.62,0,0,1,3.72.29c.59.08,1.19.16,1.78.26s1.28.32,1.93.41c.07,0,.07.14,0,.13-.61-.07-1.24,0-1.86,0l-1.86-.07c-1.24,0-2.48-.08-3.72-.14-2.49-.12-5-.21-7.45-.22C191.57,188,191.58,187.78,191.71,187.77Z" style="fill:#263238"></path><path d="M207.72,194.13a2.69,2.69,0,0,0-.94.83,4.11,4.11,0,0,0-.59,1.09,5.88,5.88,0,0,0-.34,2.42c0,.39.21.73.5.79s.56-.17.71-.54a3.23,3.23,0,0,0,.18-1.21,2.46,2.46,0,0,0-.28-1.22,2.9,2.9,0,0,1,.45,2.55,1.46,1.46,0,0,1-.36.65.9.9,0,0,1-.8.22,1,1,0,0,1-.66-.47,1.79,1.79,0,0,1-.23-.71,4.73,4.73,0,0,1,.06-1.36,4.65,4.65,0,0,1,.38-1.29A3.18,3.18,0,0,1,207.72,194.13Z" style="fill:#263238"></path><path d="M194.86,134.46c-.18,2,1.9,11.67,7.66,13.06,3,.71,5.85-9.55,5.85-9.55l.35-.71,4.94-10-12-12.49S194.91,133.9,194.86,134.46Z" style="fill:#d3766a"></path><path d="M199.13,121.9a22.44,22.44,0,0,0,9.6,15.36l4.94-10-12-12.5S200.47,118,199.13,121.9Z" style="fill:#263238"></path><path d="M233,115.12c-3.55,19.27-15.49,19.33-19.64,18.56-3.78-.7-16.53-3.56-15-23.09s11.61-24,20.32-22.85S236.52,95.84,233,115.12Z" style="fill:#d3766a"></path><path d="M199.54,110.35c3.38,1.48,6.65-6.29,6.65-6.29s15.69,1.86,20.54-9.94a21.48,21.48,0,0,0,7.08,14.33s3.41-13.51-6.41-19.21c0,0-11.73-8.64-22.18-.39S197.27,109.36,199.54,110.35Z" style="fill:#263238"></path><path d="M227.05,93.23a13.88,13.88,0,0,1-2.3,5.36,14.48,14.48,0,0,1-4.27,4.09,11.76,11.76,0,0,1-1.31.71l-.66.34-.7.26c-.46.16-.93.34-1.4.48l-1.45.31-.72.14-.73.06-1.47.12c-1,0-1.95-.08-2.91-.16,1-.12,1.93-.14,2.88-.27l1.42-.24.7-.12.69-.19c.45-.14.91-.27,1.37-.39s.87-.34,1.31-.52l.66-.26.62-.33a11.39,11.39,0,0,0,1.23-.69,16.63,16.63,0,0,0,4.2-3.74,17.17,17.17,0,0,0,1.6-2.36A16.78,16.78,0,0,0,227.05,93.23Z" style="fill:#263238"></path><path d="M201.66,111.73s-2.51-7-5.59-6.29-2.33,10.13.49,12.17a3.33,3.33,0,0,0,4.76-.54Z" style="fill:#d3766a"></path><path d="M196.36,108.13c-.05,0-.08.05,0,.08,2,1.49,2.55,3.85,2.78,6.2a1.83,1.83,0,0,0-2.51-1.21c-.06,0,0,.13,0,.13a2,2,0,0,1,2,1.28,10.07,10.07,0,0,1,.55,2c0,.22.43.22.42,0v-.06C200.4,113.77,199.29,109.24,196.36,108.13Z" style="fill:#263238"></path><path d="M197.11,117a.85.85,0,1,0,.85-.83A.84.84,0,0,0,197.11,117Z" style="fill:#455a64"></path><path d="M197.56,117a.4.4,0,0,0,.79,0,.39.39,0,0,0-.39-.4A.4.4,0,0,0,197.56,117Z" style="fill:#263238"></path><path d="M196,115.62a.6.6,0,0,0,1.19,0,.6.6,0,0,0-1.19,0Z" style="fill:#455a64"></path><path d="M230.07,111.85a12.59,12.59,0,0,1-1.25-.56,2.22,2.22,0,0,1-1.16-.81.71.71,0,0,1,.18-.84,1.75,1.75,0,0,1,1.77,0,2.6,2.6,0,0,1,1.38,1.23A.75.75,0,0,1,230.07,111.85Z" style="fill:#263238"></path><path d="M216.41,108.55a12.52,12.52,0,0,0,1.37,0,2.22,2.22,0,0,0,1.39-.26.69.69,0,0,0,.18-.84,1.72,1.72,0,0,0-1.59-.76,2.56,2.56,0,0,0-1.77.54A.76.76,0,0,0,216.41,108.55Z" style="fill:#263238"></path><path d="M218.41,113.23s-.12,0-.12.1c-.22,1.33-.68,2.82-2,3,0,0-.05.07,0,.07C217.82,116.51,218.42,114.52,218.41,113.23Z" style="fill:#263238"></path><path d="M217.49,111.62c-2.09-.57-3.08,3.67-1.13,4.19S219.25,112.1,217.49,111.62Z" style="fill:#263238"></path><path d="M216.61,111.65c-.43.16-.89.5-1.34.44s-.82-.61-1.05-1.11c0,0-.07,0-.09,0a1.6,1.6,0,0,0,.76,2c.77.29,1.51-.29,1.9-1.06C216.86,111.84,216.78,111.59,216.61,111.65Z" style="fill:#263238"></path><path d="M226.32,114.44s.1.08.08.14c-.27,1.32-.37,2.87.75,3.53,0,0,0,.08,0,.07C225.7,117.71,225.85,115.65,226.32,114.44Z" style="fill:#263238"></path><path d="M227.75,113.27c2.16.22,1.57,4.52-.43,4.32S225.94,113.09,227.75,113.27Z" style="fill:#263238"></path><path d="M228.57,113.61c.34.3.65.78,1.1.89s1-.27,1.38-.66c0,0,.07,0,.06.06-.1.83-.53,1.63-1.44,1.63s-1.3-.81-1.39-1.67C228.27,113.7,228.43,113.49,228.57,113.61Z" style="fill:#263238"></path><path d="M214.42,123.51c.22.39.4.9.86,1.08a3.52,3.52,0,0,0,1.48.09,0,0,0,0,1,0,.08A1.79,1.79,0,0,1,215,125a1.42,1.42,0,0,1-.67-1.44C214.28,123.45,214.39,123.45,214.42,123.51Z" style="fill:#263238"></path><path d="M222.3,120.14s-.3,2-.57,2.91c0,.08-.25.06-.57,0h0a4.51,4.51,0,0,1-3.71-2.85.1.1,0,0,1,.17-.08,6.84,6.84,0,0,0,3.6,2.29c.14-.24.4-3.44.55-3.41a8.27,8.27,0,0,1,1.92,1.07c.75-4.14.82-8.37,1.63-12.49a.13.13,0,0,1,.26,0c.23,4.44-.53,9.23-1.19,13.53C224.28,121.64,222.62,120.41,222.3,120.14Z" style="fill:#263238"></path><path d="M220.65,122.48a4.69,4.69,0,0,1-2.15,1,2,2,0,0,1-1.25-.22c-.84-.45-.67-1.27-.34-1.93a4.78,4.78,0,0,1,.66-1A6,6,0,0,0,220.65,122.48Z" style="fill:#263238"></path><path d="M218.5,123.45a2,2,0,0,1-1.25-.22c-.84-.45-.67-1.27-.34-1.93A2.15,2.15,0,0,1,218.5,123.45Z" style="fill:#ff99ba"></path><path d="M242.87,192.92c.77,4.59-12.43,5.64-15.61,6.59s-3.51,1.87-1.72,2.55a5.36,5.36,0,0,0,1.13.19c-5.23-.18-22.93-3.17-22.93-3.17s9.47-5,14.6-7S242.1,188.31,242.87,192.92Z" style="fill:#d3766a"></path><path d="M278.09,169.58a44.33,44.33,0,0,1,8.4-4.74c3.93-1.49,12.58-4,14.1-4.85l2.64-.29L288.6,215l-23.16,7.32L226,213.72l11.55-52.47,2.67-.33s5,1.29,9.16,1.94S267.66,163.33,278.09,169.58Z" style="fill:#fff"></path><polygon points="262.03 223.93 274.95 170.71 235.83 160.82 223.77 215.07 262.03 223.93" style="fill:#FD9C35"></polygon><polygon points="262.03 223.93 274.95 170.71 235.83 160.82 223.77 215.07 262.03 223.93" style="opacity:0.2"></polygon><polygon points="262.03 223.93 267.66 223.93 280.64 170.71 274.95 170.71 262.03 223.93" style="fill:#FD9C35"></polygon><polygon points="262.03 223.93 267.66 223.93 280.64 170.71 274.95 170.71 262.03 223.93" style="opacity:0.1"></polygon><polygon points="267.66 223.93 280.64 170.71 304.35 159.16 289.25 215.49 267.66 223.93" style="fill:#FD9C35"></polygon><polygon points="267.66 223.93 280.64 170.71 304.35 159.16 289.25 215.49 267.66 223.93" style="opacity:0.2"></polygon><path d="M255.93,209.45c.48,4.1-5.59,6.52-6,6.67.38-.1,5.89-1.61,6.07,2.5s-5,7.35-5,7.35,2,.65.82,3.72c-1.75,4.39-11.54,7.3-17,7.61s-26.69-3.06-29.79-3.56l-1.31-34.66s17.7,3,22.93,3.17h.07a88,88,0,0,0,10.9,0c5.73-.55,12.81-6,14.46-2.06,1.47,3.52-3.81,6.83-3.81,6.83S255.44,205.22,255.93,209.45Z" style="fill:#d3766a"></path><path d="M248,207.06c-7.67,4.09-11.74,4.55-20.27,3.91-.17,0-.23.24,0,.27,8.3,1.37,13.48,1.53,20.54-3.82C248.53,207.16,248.33,206.86,248,207.06Z" style="fill:#263238"></path><path d="M250.2,215.88c-8.34,3.55-12.74,4.09-21.73,4.09a.11.11,0,0,0,0,.22c8.81.74,14,.78,21.85-3.86C250.67,216.12,250.58,215.72,250.2,215.88Z" style="fill:#263238"></path><path d="M250.91,225.94c-8.32,2.85-13.13,3.65-21.85,2.53a.16.16,0,0,0-.06.32c8.78,2,14.78,1.05,22-2.59C251.46,226,251.43,225.76,250.91,225.94Z" style="fill:#263238"></path><path d="M304.78,171.12c1.36,4.62,5.64,10.77,5.5,14.34a4.11,4.11,0,0,1-2.94,3.92s3.22,2.31,2.56,5.53c-.34,1.66-3.28,2.57-3.28,2.57s2.5,2,1.73,4.79c-.61,2.26-3.47,2.83-3.47,2.83s1.52,3,.17,5.1c-2.76,4.25-22.55,1.09-24.45-6.69-.88-3.62,3.91-2.59,3.91-2.59s-6.53-3.15-6-7.25,6.69-2.38,6.69-2.38-6.3-3.11-5.31-7.3c1-4.36,6.89-1.59,6.89-1.59s-3.92-3.69-2.42-6.72c2.47-5,9.74,2.95,14.26,2.61l3.54-6.79Z" style="fill:#d3766a"></path><path d="M307.76,178c-.9-4.48,5.17-8.87,4.93-13.29-.33-6-7.72-1.35-10.51,6.8l-1,6.71Z" style="fill:#d3766a"></path><path d="M304.44,205.26a.06.06,0,0,1,0,.11,34.78,34.78,0,0,1-20.19-4.48c-.2-.11-.09-.47.15-.38A71.21,71.21,0,0,0,304.44,205.26Z" style="fill:#263238"></path><path d="M306.7,197.54a.07.07,0,0,1,0,.14c-7,.53-15.49-1.37-21.73-6.25-.21-.16-.24-.53,0-.35C289.38,194,300.24,197.07,306.7,197.54Z" style="fill:#263238"></path><path d="M286.46,181.9c6.17,4.45,13.14,6.47,20.6,7.52.1,0,.07.15,0,.16-3.79.48-8.47-.68-12-1.89a20.13,20.13,0,0,1-8.7-5.57C286.21,182,286.33,181.81,286.46,181.9Z" style="fill:#263238"></path><path d="M173,149.89c-13.51,18.31-32.9,59.28-26.5,70.16,4.64,7.87,50.22,14.14,60.76,13.68,4.6-.21,7.37-34.1,2.52-34.95-4.4-.78-29.66-1.55-30.18-2.64s9.1-35.73,11.78-50.27C195.33,124.43,178.28,142.74,173,149.89Z" style="fill:#d3766a"></path><path d="M153,171.21l33.39,5.2s7.29-20.26,8.34-33.4c.79-10-4.78-11.23-9.92-7C167.7,150.25,153,171.21,153,171.21Z" style="fill:#FD9C35"></path><path d="M186,146.63a1.17,1.17,0,1,1-1.17-1.17A1.17,1.17,0,0,1,186,146.63ZM172.63,166a1.17,1.17,0,1,0,1.16,1.16A1.16,1.16,0,0,0,172.63,166Z" style="fill:#fff"></path><path d="M186.1,170.8c-5.09-1.17-19-3.93-28.23-4.54-.05,0-.09.2,0,.22,7.63,1.67,23,3.91,28.21,4.63C186.14,171.12,186.19,170.82,186.1,170.8Z" style="fill:#263238"></path><path d="M186.77,176.51c.93-2.59,1.64-5.29,2.38-7.94.36-.7.72-1.4,1-2.12a14.63,14.63,0,0,0,1-2.88,0,0,0,0,0-.07,0c-.19.45-.34.92-.53,1.37s-.38.91-.57,1.36-.4.93-.62,1.39c.73-2.61,1.38-5.23,1.92-7.88,0-.07-.09-.11-.11,0-1,2.71-1.89,5.46-2.68,8.23s-1.61,5.42-2.21,8.17c-.47,0-.93-.09-1.41-.1a.11.11,0,0,0,0,.22c.52.16,1,.28,1.57.41A.29.29,0,0,0,186.77,176.51Z" style="fill:#263238"></path><path d="M184.25,176.07l-2.62,11.28c-.43,1.88-.85,3.77-1.21,5.65a26.68,26.68,0,0,0-.43,2.79c0,.08,0,.23-.05.07s-.09-.07,0-.05l.14,0c.2,0,.44.09.67.12.46.07.94.13,1.42.18,3.82.41,7.68.64,11.52.93l11.55.82-.23,0c1.44-.8,2.92-1.52,4.4-2.24s3-1.4,4.5-2.05,3.06-1.22,4.63-1.73a20.37,20.37,0,0,1,4.81-1.05,23.43,23.43,0,0,0-4.71,1.34c-1.53.58-3,1.26-4.51,1.94-3,1.38-5.86,2.93-8.7,4.54l-.11.06h-.13c-7.72-.43-15.42-.83-23.13-1.71l-1.45-.21a7.11,7.11,0,0,1-.75-.15l-.21-.06a1,1,0,0,1-.35-.21,1,1,0,0,1-.14-.65,20.42,20.42,0,0,1,.51-2.92c.43-1.89.92-3.76,1.41-5.63C182,183.47,183.12,179.76,184.25,176.07Z" style="fill:#263238"></path></g></svg>