<svg width="1377" height="1054" viewBox="0 0 1377 1054" fill="none" xmlns="http://www.w3.org/2000/svg">
<path d="M558.428 920.082H871.282" stroke="#FFCF2D" stroke-width="6" stroke-miterlimit="10" stroke-linecap="round"/>
<path d="M714.744 617.463V751.472C714.744 792.729 734.298 831.034 766.409 852.686L811.602 883.162" stroke="#66B0F0" stroke-width="6" stroke-miterlimit="10" stroke-linecap="round" stroke-linejoin="round"/>
<path d="M690.261 617.463V751.472C690.261 792.729 670.707 831.034 638.596 852.686L593.402 883.162" stroke="#66B0F0" stroke-width="6" stroke-miterlimit="10" stroke-linecap="round" stroke-linejoin="round"/>
<path d="M673.821 617.463H728.928C733.803 617.463 737.741 613.157 737.741 607.827V592.619H665.008V607.827C665.008 613.157 668.946 617.463 673.821 617.463Z" fill="white" stroke="#66B0F0" stroke-width="6" stroke-miterlimit="10"/>
<path d="M813.64 920.082C802.459 920.082 793.398 910.174 793.398 897.948C793.398 885.722 802.459 875.814 813.64 875.814C824.822 875.814 833.882 885.722 833.882 897.948C833.882 910.174 824.822 920.082 813.64 920.082Z" fill="white" stroke="#FFCF2D" stroke-width="6" stroke-miterlimit="10"/>
<path d="M592.963 920.082C581.781 920.082 572.721 910.174 572.721 897.948C572.721 885.722 581.781 875.814 592.963 875.814C604.144 875.814 613.205 885.722 613.205 897.948C613.205 910.174 604.144 920.082 592.963 920.082Z" fill="white" stroke="#FFCF2D" stroke-width="6" stroke-miterlimit="10"/>
<path d="M592.963 915.414C584.151 915.414 576.99 907.584 576.99 897.948C576.99 888.311 584.151 880.481 592.963 880.481C601.776 880.481 608.937 888.311 608.937 897.948C608.937 907.584 601.776 915.414 592.963 915.414Z" fill="white" stroke="#FFCF2D" stroke-width="6" stroke-miterlimit="10"/>
<path d="M813.557 915.414C804.744 915.414 797.584 907.584 797.584 897.948C797.584 888.311 804.744 880.481 813.557 880.481C822.37 880.481 829.53 888.311 829.53 897.948C829.53 907.584 822.37 915.414 813.557 915.414Z" fill="white" stroke="#FFCF2D" stroke-width="6" stroke-miterlimit="10"/>
<path d="M672.746 816.218C672.746 816.218 698.964 795.198 732.315 816.218" stroke="#66B0F0" stroke-width="6" stroke-miterlimit="10" stroke-linecap="round" stroke-linejoin="round"/>
<path d="M714.112 580.604L688.775 864.069H766.851L831.047 609.001C842.862 567.383 817.442 525.043 777.867 524.952H772.359C743.057 524.862 718.216 548.622 714.112 580.604Z" fill="#31A1A9"/>
<path d="M704.031 864.069H745.176L738.704 887.227C730.58 878.374 719.261 871.989 706.895 871.176C705.739 871.086 704.61 871.056 703.48 871.056L704.031 864.069Z" fill="#E57281"/>
<path d="M751.236 919.901C753.384 898.099 732.343 872.863 706.869 871.146C681.394 869.43 665.669 887.83 664.43 909.693C664.237 913.005 663.961 917.04 664.622 919.992L751.236 919.901Z" fill="white" stroke="#1D6362" stroke-width="6" stroke-miterlimit="10"/>
<path d="M665.174 911.981L751.236 913.095" stroke="#1D6362" stroke-width="6" stroke-miterlimit="10"/>
<path d="M736.309 864.069L801.441 820.705L655.81 553.922C637.385 521.971 590.622 512.094 561.127 531.728C527.115 554.374 520.45 605.297 547.274 637.459L736.309 864.069Z" fill="#3FB1B5"/>
<path d="M736.584 862.865L801.992 820.102L656.085 553.922C637.661 521.971 590.898 512.094 561.402 531.728C527.391 554.374 520.726 605.297 547.55 637.459L736.584 862.865Z" stroke="white" stroke-width="6" stroke-miterlimit="10"/>
<path d="M800.422 818.808C797.53 813.568 780.593 818.898 762.582 830.763C744.57 842.598 732.37 856.872 735.262 862.112C738.154 867.352 755.036 861.6 773.047 849.765C791.03 837.93 803.286 824.078 800.422 818.808Z" fill="#73325A"/>
<path d="M796.456 852.716L766.052 873.616L757.46 863.076L754.843 859.853L743.938 846.483C748.619 841.243 755.036 835.702 762.61 830.763C768.724 826.758 774.755 823.566 780.208 821.397L788.718 837.749L790.59 841.333L796.456 852.716Z" fill="#E57281"/>
<path d="M844.432 875.392L768.697 920.052C766.796 917.823 765.171 915.203 763.877 912.222C762.775 909.723 761.922 907.103 761.261 904.453C756.799 886.143 763.106 865.153 783.238 854.674C801.001 845.429 823.116 850.729 835.894 862.895C839.667 866.539 842.641 870.785 844.432 875.392Z" fill="white" stroke="#1D6362" stroke-width="6" stroke-miterlimit="10"/>
<path d="M840.382 868.616L764.619 913.276" stroke="#1D6362" stroke-width="6" stroke-miterlimit="10" stroke-linecap="round"/>
<path d="M788.663 837.719C784.312 841.694 778.969 845.85 772.993 849.765C766.603 853.981 760.324 857.414 754.789 859.853L743.332 846.482C748.014 841.243 754.981 835.702 762.555 830.763C768.669 826.758 774.7 823.264 780.153 821.096L788.663 837.719Z" fill="#9A3B82"/>
<path d="M798.742 814.17C795.851 808.93 777.564 814.14 759.25 826.186C740.936 838.231 729.314 852.355 732.206 857.595" stroke="white" stroke-width="6" stroke-miterlimit="10"/>
<path d="M1052.28 592.619C1059.46 592.619 1065.3 586.235 1065.3 578.375V523.868C1065.3 516.008 1059.46 509.624 1052.28 509.624H327.864C320.676 509.624 314.838 516.008 314.838 523.868V578.375C314.838 586.235 320.676 592.619 327.864 592.619H1052.28Z" fill="#9A3B82"/>
<path d="M1052.06 497.277H328.058C320.87 497.277 315.031 503.662 315.031 511.521V566.028C315.031 573.888 320.87 580.272 328.058 580.272H1052.06C1059.24 580.272 1065.08 573.888 1065.08 566.028V511.521C1065.08 503.662 1059.24 497.277 1052.06 497.277Z" fill="white" stroke="#FFCF2D" stroke-width="6" stroke-miterlimit="10"/>
<path d="M1014.35 580.333V920.202" stroke="#FFCF2D" stroke-width="6" stroke-miterlimit="10" stroke-linecap="round"/>
<path d="M382.338 580.333V920.202" stroke="#FFCF2D" stroke-width="6" stroke-miterlimit="10" stroke-linecap="round"/>
<path d="M358.543 835.612L357.386 836.425L315.36 765.626L302.719 766.68C300.02 766.921 297.872 764.241 298.423 761.32C299.001 758.429 301.948 756.923 304.344 758.368L314.727 764.602L307.098 751.713L294.457 752.797C291.758 753.038 289.61 750.328 290.189 747.437C290.767 744.546 293.714 743.04 296.11 744.486L306.492 750.689L298.864 737.8L286.223 738.885C283.524 739.125 281.376 736.415 281.954 733.524C282.532 730.633 285.479 729.127 287.875 730.573L298.258 736.807L293.659 729.067L285.121 721.087C283.056 719.16 283.276 715.606 285.534 713.98C287.82 712.354 290.877 713.589 291.648 716.449L294.815 728.224L299.552 736.204L298.561 722.954C298.34 720.003 300.792 717.654 303.435 718.256C306.079 718.859 307.456 722.111 306.162 724.701L300.048 737.048L307.787 750.087L306.795 736.867C306.575 733.916 309.026 731.567 311.67 732.169C314.314 732.771 315.691 736.024 314.396 738.613L308.282 750.96L316.021 764L315.03 750.78C314.809 747.828 317.26 745.449 319.904 746.082C322.548 746.684 323.925 749.936 322.631 752.526L316.517 764.873L358.543 835.612Z" fill="#9A3B82"/>
<path d="M429.156 810.587C408.969 855.065 381.705 885.993 365.594 883.855C364.272 883.674 363.033 883.282 361.876 882.65C346.564 874.339 351.851 828.595 373.718 780.472C383.082 759.844 393.96 742.167 404.535 729.308C418.663 712.173 432.241 703.651 440.998 708.409C456.311 716.72 450.995 762.464 429.156 810.587Z" fill="#9A3B82"/>
<path d="M403.874 775.443C399.385 831.817 382.889 877.29 365.621 883.855C364.299 883.674 363.06 883.282 361.903 882.65C346.591 874.338 351.879 828.595 373.746 780.472C383.109 759.844 393.987 742.167 404.563 729.308C405.334 743.492 405.169 759.121 403.874 775.443Z" fill="#FFCF2D"/>
<path d="M440.998 708.409L365.621 883.855" stroke="#FFCF2D" stroke-width="6" stroke-miterlimit="10"/>
<path d="M439.566 838.502L428.908 842.417L421.802 847.868L433.865 846.302C436.564 845.941 438.795 848.53 438.354 851.451C437.886 854.372 434.994 855.999 432.543 854.674L421.031 848.44L409.382 857.384L421.444 855.818C424.143 855.457 426.374 858.046 425.933 860.968C425.465 863.889 422.574 865.515 420.123 864.19L408.611 857.956L396.989 866.9L409.051 865.334C411.75 864.973 413.981 867.563 413.513 870.484C413.045 873.405 410.153 875.031 407.702 873.706L396.19 867.472L374.902 883.824H372.506L395.447 866.207L394.015 852.445C393.712 849.494 396.08 847.055 398.751 847.567C401.423 848.079 402.882 851.271 401.671 853.921L396.355 865.515L407.84 856.691L406.408 842.929C406.105 839.978 408.473 837.539 411.144 838.051C413.816 838.562 415.275 841.755 414.064 844.405L408.776 855.969L420.26 847.145L418.828 833.383C418.525 830.432 420.894 827.992 423.565 828.504C426.236 829.016 427.696 832.208 426.484 834.858L421.169 846.452L428.082 841.152L435.049 831.516C436.729 829.197 440.006 829.287 441.549 831.727C443.174 834.166 442.155 837.569 439.566 838.502Z" fill="#FFCF2D"/>
<path d="M353.173 881.506C351.796 882.018 350.336 882.379 348.849 882.59C331.499 885.059 307.539 867.352 293.053 840.46C277.327 811.249 278.76 782.279 296.247 775.714C301.921 773.576 308.613 774.088 315.553 776.738C330.039 782.249 345.737 797.005 356.367 816.73C372.065 845.971 370.633 874.941 353.173 881.506Z" fill="white" stroke="#FFCF2D" stroke-width="6" stroke-miterlimit="10"/>
<path d="M353.172 881.506C351.795 882.018 350.336 882.379 348.849 882.59C332.82 874.64 318.885 840.972 315.938 800.077C315.36 792.006 315.25 784.176 315.553 776.738C330.039 782.249 345.737 797.005 356.367 816.73C372.065 845.971 370.633 874.941 353.172 881.506Z" fill="#FFCF2D"/>
<path d="M289.609 779.96L348.82 882.59" stroke="#FFCF2D" stroke-width="6" stroke-miterlimit="10"/>
<path d="M360.222 885.059C379.386 885.059 394.922 834.513 394.922 772.161C394.922 709.809 379.386 659.262 360.222 659.262C341.057 659.262 325.521 709.809 325.521 772.161C325.521 834.513 341.057 885.059 360.222 885.059Z" fill="white" stroke="#FFCF2D" stroke-width="6" stroke-miterlimit="10"/>
<path d="M360.223 659.232V885.059" stroke="#FFCF2D" stroke-width="6" stroke-miterlimit="10"/>
<path d="M382.336 686.305L360.222 718.708L341.467 678.114" stroke="#FFCF2D" stroke-width="6" stroke-miterlimit="10" stroke-linecap="round"/>
<path d="M389.525 713.769L360.002 758.157L333.453 701.994" stroke="#FFCF2D" stroke-width="6" stroke-miterlimit="10" stroke-linecap="round"/>
<path d="M394.123 745.449L359.726 797.306L328.303 731.055" stroke="#FFCF2D" stroke-width="6" stroke-miterlimit="10" stroke-linecap="round"/>
<path d="M396.271 787.73L359.891 843.381L325.604 772.251" stroke="#FFCF2D" stroke-width="6" stroke-miterlimit="10" stroke-linecap="round"/>
<path d="M411.668 920.202H308.696C300.765 920.202 294.32 913.156 294.32 904.483V899.574C294.32 890.901 300.765 883.854 308.696 883.854H411.668C419.6 883.854 426.044 890.901 426.044 899.574V904.483C426.044 913.186 419.6 920.202 411.668 920.202Z" fill="white" stroke="#66B0F0" stroke-width="6" stroke-miterlimit="10"/>
<path d="M1017.88 528.928C1017.88 533.415 1014.6 537.059 1010.58 537.059H898.409C894.361 537.059 891.111 533.415 891.111 528.928C891.111 524.441 894.389 520.797 898.409 520.797H1010.58C1014.6 520.797 1017.88 524.441 1017.88 528.928Z" fill="#1D6362"/>
<path d="M970.536 444.246H924.627V479.179H1013.31C1007.69 458.46 990.282 444.246 970.536 444.246Z" fill="white" stroke="#FFCF2D" stroke-width="6" stroke-miterlimit="10"/>
<path d="M932.889 444.246V479.179L913.887 479.209V444.246H932.889Z" fill="#FFCF2D" stroke="#FFCF2D" stroke-width="6" stroke-miterlimit="10"/>
<path d="M1083.61 478.486L1013.31 479.179C1013.31 479.179 1030.9 453.1 1079.21 459.996C1079.21 459.996 1041.42 451.383 1003.09 459.996" stroke="#FFCF2D" stroke-width="6" stroke-miterlimit="10"/>
<path d="M1013.31 479.179C1013.31 479.179 1044.12 460.658 1081.69 469.632" stroke="#FFCF2D" stroke-width="6" stroke-miterlimit="10"/>
<path d="M1021.15 507.757C1021.15 511.04 1021.62 514.021 1022.37 516.219H988.63C986.895 516.219 985.463 514.563 985.463 512.545V502.999C985.463 500.951 986.867 499.325 988.63 499.325H1022.37C1021.62 501.493 1021.15 504.475 1021.15 507.757Z" fill="#FFCF2D"/>
<path d="M985.491 502.999V512.545C985.491 514.593 987.006 516.219 988.851 516.219H1025.09V516.912C1025.09 518.598 1023.85 519.954 1022.31 519.954H895.545C894.003 519.954 892.764 518.598 892.764 516.912V498.603C892.764 496.916 894.003 495.561 895.545 495.561H1022.31C1023.85 495.561 1025.09 496.916 1025.09 498.603V499.295H988.851C987.006 499.325 985.491 500.952 985.491 502.999Z" fill="white"/>
<path d="M985.491 502.999V512.546C985.491 514.593 987.006 516.219 988.851 516.219H1025.09V516.912C1025.09 518.598 1023.85 519.954 1022.31 519.954H895.545C894.003 519.954 892.764 518.598 892.764 516.912V498.603C892.764 496.916 894.003 495.561 895.545 495.561H1022.31C1023.85 495.561 1025.09 496.916 1025.09 498.603V499.295H988.851C987.006 499.325 985.491 500.952 985.491 502.999Z" stroke="#FFCF2D" stroke-width="6" stroke-miterlimit="10"/>
<path d="M938.259 543.593C936.937 544.948 936.111 547.418 936.111 549.496C936.111 553.621 939.416 557.867 943.492 557.867H1045.06C1045.06 559.795 1043.63 561.391 1041.84 561.391H919.257C915.979 561.391 913.005 560.036 910.857 557.867C908.709 555.699 907.359 552.688 907.359 549.345C907.359 542.69 912.675 537.299 919.257 537.299H1041.84C1043.6 537.299 1045.06 538.865 1045.06 540.823V541.455H943.492C941.426 541.425 939.581 542.268 938.259 543.593Z" fill="#FFCF2D"/>
<path d="M1037.71 541.425V557.566H1045.03V558.921H943.134C942.005 558.921 940.903 558.68 939.911 558.229C938.837 557.747 937.846 557.054 937.047 556.151C935.478 554.434 934.514 552.085 934.514 549.496C934.514 544.286 938.369 540.07 943.134 540.07H1045.03V541.425H1037.71Z" fill="#1D6362"/>
<path d="M1040.54 541.425V557.566H943.492C939.416 557.566 936.111 553.952 936.111 549.495C936.111 547.267 936.937 545.249 938.259 543.774C939.581 542.328 941.427 541.425 943.464 541.425H1040.54Z" fill="white"/>
<path d="M1040.54 541.425V557.566" stroke="#1D6362" stroke-width="5" stroke-miterlimit="10"/>
<path d="M957.013 552.869V566.33H948.504V554.585C948.504 551.784 946.438 549.496 943.849 549.496H940.049V547.779H952.359C954.948 547.779 957.013 550.068 957.013 552.869Z" fill="#1D6362"/>
<path d="M1045.44 479.932H900.749C897.004 479.932 893.975 483.244 893.975 487.34C894.002 491.405 897.004 494.718 900.749 494.718H1045.44C1049.19 494.718 1052.22 491.405 1052.22 487.31C1052.19 483.244 1049.16 479.932 1045.44 479.932Z" fill="#66B0F0"/>
<path d="M1012.62 494.748H1011.16C1011.32 495.229 1011.73 496.434 1012.64 496.434C1013.19 496.434 1015.89 495.982 1015.89 487.339C1015.89 484.268 1015.56 481.919 1014.9 480.323C1014.1 478.426 1013.06 478.215 1012.67 478.215C1011.73 478.215 1011.32 479.45 1011.16 479.931H1012.62C1012.67 479.811 1012.73 479.751 1012.75 479.721C1013.25 479.871 1014.57 481.377 1014.57 487.339C1014.57 493.302 1013.25 494.778 1012.75 494.958C1012.7 494.898 1012.64 494.838 1012.62 494.748Z" fill="#9A3B82"/>
<path d="M1024.57 494.748H1023.11C1023.27 495.229 1023.69 496.434 1024.6 496.434C1025.15 496.434 1027.85 495.982 1027.85 487.339C1027.85 484.268 1027.52 481.919 1026.85 480.323C1026.06 478.426 1025.01 478.215 1024.62 478.215C1023.69 478.215 1023.27 479.45 1023.11 479.931H1024.57C1024.62 479.811 1024.68 479.751 1024.71 479.721C1025.2 479.871 1026.52 481.377 1026.52 487.339C1026.52 493.302 1025.2 494.778 1024.71 494.958C1024.68 494.898 1024.62 494.838 1024.57 494.748Z" fill="#9A3B82"/>
<path d="M1036.55 494.748H1035.09C1035.25 495.23 1035.67 496.434 1036.58 496.434C1037.35 496.434 1039.82 495.772 1039.82 487.34C1039.82 478.878 1037.35 478.245 1036.58 478.245C1035.64 478.245 1035.23 479.48 1035.06 479.962H1036.52C1036.58 479.841 1036.63 479.781 1036.66 479.751C1037.21 479.901 1038.48 481.467 1038.48 487.37C1038.48 490.983 1038.01 492.851 1037.59 493.814C1037.26 494.597 1036.91 494.928 1036.66 494.989C1036.63 494.898 1036.6 494.838 1036.55 494.748Z" fill="#9A3B82"/>
<path d="M976.677 494.748H975.217C975.382 495.23 975.795 496.434 976.704 496.434C977.255 496.434 979.954 495.982 979.954 487.34C979.954 478.878 977.475 478.245 976.704 478.245C975.768 478.245 975.355 479.48 975.189 479.962H976.649C976.704 479.841 976.759 479.781 976.787 479.751C977.338 479.901 978.604 481.467 978.604 487.37C978.604 493.332 977.283 494.808 976.787 494.989C976.787 494.898 976.732 494.838 976.677 494.748Z" fill="#9A3B82"/>
<path d="M988.657 494.748H987.197C987.363 495.23 987.776 496.434 988.685 496.434C989.208 496.434 990.172 496.193 990.915 494.507C991.576 492.971 991.934 490.562 991.934 487.34C991.934 484.117 991.604 481.708 990.915 480.172C990.172 478.486 989.208 478.245 988.685 478.245C987.748 478.245 987.335 479.48 987.17 479.962H988.63C988.685 479.841 988.74 479.781 988.767 479.751C989.098 479.811 989.428 480.203 989.704 480.835C990.089 481.738 990.585 483.605 990.585 487.37C990.585 491.104 990.117 492.971 989.704 493.905C989.428 494.537 989.07 494.928 988.767 494.989C988.74 494.898 988.712 494.838 988.657 494.748Z" fill="#9A3B82"/>
<path d="M1000.64 494.748H999.176C999.341 495.23 999.754 496.434 1000.66 496.434C1001.43 496.434 1003.91 495.772 1003.91 487.34C1003.91 478.667 1001.21 478.245 1000.66 478.245C999.727 478.245 999.314 479.48 999.148 479.962H1000.61C1000.66 479.841 1000.72 479.781 1000.75 479.751C1001.24 479.901 1002.56 481.407 1002.56 487.37C1002.56 493.272 1001.3 494.838 1000.75 494.989C1000.72 494.898 1000.69 494.838 1000.64 494.748Z" fill="#9A3B82"/>
<path d="M940.765 494.748H939.305C939.47 495.23 939.883 496.434 940.792 496.434C941.205 496.434 942.252 496.224 943.023 494.326C943.684 492.76 944.014 490.381 944.014 487.31C944.014 484.479 943.656 482.1 943.023 480.474C942.445 479.028 941.618 478.185 940.765 478.185C939.828 478.185 939.415 479.42 939.25 479.902H940.71C940.765 479.811 940.792 479.721 940.82 479.691C940.985 479.781 941.371 480.112 941.756 481.076C942.169 482.07 942.637 483.967 942.637 487.28C942.637 493.242 941.315 494.718 940.82 494.898C940.847 494.898 940.82 494.838 940.765 494.748Z" fill="#9A3B82"/>
<path d="M952.745 494.748H951.286C951.451 495.229 951.864 496.434 952.773 496.434C953.186 496.434 954.232 496.223 955.003 494.326C955.664 492.76 955.995 490.381 955.995 487.309C955.995 478.847 953.516 478.215 952.745 478.215C951.809 478.215 951.396 479.45 951.23 479.931H952.69C952.745 479.811 952.8 479.751 952.828 479.721C953.379 479.871 954.645 481.437 954.645 487.339C954.645 493.302 953.324 494.778 952.828 494.958C952.828 494.898 952.8 494.838 952.745 494.748Z" fill="#9A3B82"/>
<path d="M964.723 494.748H963.264C963.429 495.23 963.842 496.434 964.751 496.434C965.522 496.434 968.001 495.772 968.001 487.34C968.001 484.117 967.67 481.708 966.982 480.172C966.238 478.486 965.274 478.245 964.751 478.245C963.815 478.245 963.402 479.48 963.236 479.962H964.696C964.751 479.841 964.806 479.781 964.834 479.751C965.164 479.811 965.495 480.203 965.77 480.835C966.156 481.738 966.651 483.605 966.651 487.37C966.651 493.272 965.384 494.838 964.834 494.989C964.806 494.898 964.751 494.838 964.723 494.748Z" fill="#9A3B82"/>
<path d="M904.852 494.748H903.393C903.558 495.23 903.971 496.434 904.88 496.434C905.734 496.434 906.532 495.591 907.138 494.146C907.799 492.52 908.13 490.171 908.13 487.31C908.13 483.967 907.579 481.859 907.138 480.685C906.532 479.119 905.706 478.215 904.88 478.215C903.944 478.215 903.53 479.45 903.365 479.932H904.825C904.88 479.841 904.907 479.781 904.935 479.721C905.128 479.842 905.541 480.263 905.926 481.407C906.312 482.461 906.753 484.329 906.753 487.31C906.753 490.653 906.285 492.52 905.871 493.544C905.486 494.507 905.1 494.838 904.935 494.929C904.935 494.899 904.88 494.838 904.852 494.748Z" fill="#9A3B82"/>
<path d="M916.805 494.748H915.346C915.511 495.229 915.924 496.434 916.833 496.434C917.687 496.434 918.485 495.591 919.091 494.145C919.752 492.519 920.083 490.17 920.083 487.309C920.083 481.407 918.403 478.215 916.833 478.215C915.897 478.215 915.484 479.45 915.318 479.931H916.778C916.833 479.841 916.861 479.781 916.888 479.721C917.081 479.841 917.466 480.263 917.88 481.347C918.265 482.371 918.706 484.268 918.706 487.309C918.706 490.652 918.238 492.519 917.824 493.543C917.439 494.507 917.053 494.838 916.888 494.928C916.888 494.898 916.861 494.838 916.805 494.748Z" fill="#9A3B82"/>
<path d="M928.784 494.748H927.324C927.49 495.229 927.903 496.434 928.812 496.434C929.225 496.434 930.244 496.223 931.07 494.206C931.731 492.579 932.061 490.261 932.061 487.339C932.061 484.509 931.703 482.13 931.07 480.504C930.492 479.058 929.665 478.215 928.812 478.215C927.875 478.215 927.462 479.45 927.297 479.931H928.756C928.812 479.841 928.839 479.751 928.867 479.721C929.032 479.811 929.417 480.142 929.803 481.106C930.216 482.1 930.684 483.997 930.684 487.309C930.684 490.712 930.216 492.579 929.803 493.573C929.417 494.507 929.032 494.838 928.867 494.898C928.867 494.898 928.839 494.838 928.784 494.748Z" fill="#9A3B82"/>
<path d="M994.332 268.258H897.777C892.186 268.258 887.67 263.32 887.67 257.206V151.626C887.67 145.512 892.186 140.574 897.777 140.574H994.332C999.923 140.574 1004.44 145.512 1004.44 151.626V257.206C1004.44 263.32 999.895 268.258 994.332 268.258Z" fill="#FFCF2D"/>
<path d="M987.281 261.181H888.826C883.235 261.181 878.719 256.243 878.719 250.129V142.471C878.719 136.358 883.235 131.419 888.826 131.419H987.281C992.872 131.419 997.389 136.358 997.389 142.471V250.129C997.389 256.243 992.872 261.181 987.281 261.181Z" fill="white" stroke="#FFCF2D" stroke-width="6" stroke-miterlimit="10"/>
<path d="M938.068 245.974C963.164 245.974 983.509 223.727 983.509 196.285C983.509 168.843 963.164 146.597 938.068 146.597C912.972 146.597 892.627 168.843 892.627 196.285C892.627 223.727 912.972 245.974 938.068 245.974Z" stroke="#FFCF2D" stroke-width="6" stroke-miterlimit="10"/>
<path d="M912.51 174.964L938.067 196.285L931.788 175.235" stroke="#FFCF2D" stroke-width="6" stroke-miterlimit="10" stroke-linecap="round"/>
<path d="M857.155 580.272H779.299L746.609 537.329H822.592L857.155 580.272Z" fill="#FFCF2D"/>
<path d="M899.319 582.501V609.001L837.63 609.272C829.726 609.302 823.309 602.316 823.309 593.673V585.452C823.309 579.971 821.464 574.701 818.159 570.635L797.807 545.641H873.79L893.233 566.63C897.143 570.816 899.319 576.508 899.319 582.501Z" fill="white" stroke="#66B0F0" stroke-width="6" stroke-miterlimit="10"/>
<path d="M927.079 599.666C924.463 605.387 919.065 609.302 912.813 609.302H836.803C843.027 609.302 848.425 605.387 851.068 599.666H927.079Z" fill="white" stroke="#66B0F0" stroke-width="6" stroke-miterlimit="10"/>
<path d="M879.958 434.609L833.581 345.531C822.51 324.241 801.827 311.111 779.437 311.111H605.742L611.829 296.746C611.333 297.921 608.717 298.222 604.723 297.62C598.61 296.716 589.301 293.795 579.387 288.977C573.713 286.236 568.563 283.376 564.295 280.725C556.226 275.696 551.351 271.3 552.15 269.342L463.471 428.376C444 459.424 464.325 501.614 498.75 501.614C503.376 501.614 507.948 500.801 512.299 499.205C516.651 497.609 520.754 495.26 524.444 492.218L592.551 436.236C596.654 432.863 602.52 435.483 603.346 440.994L612.242 501.614H844.294C875.772 501.644 895.518 464.483 879.958 434.609ZM776.738 441.566L784.174 423.076C785.441 419.914 789.517 419.853 790.839 422.985L798.908 441.596H776.738V441.566Z" fill="#1D6362"/>
<path d="M633.393 311.051C633.393 295.481 662.778 276.238 698.415 271.33C751.87 264.012 763.437 295.481 763.437 311.051" stroke="#1D6362" stroke-width="6" stroke-miterlimit="10"/>
<path d="M757.268 311.322C757.268 325.265 698.415 353.813 698.415 353.813C698.415 353.813 639.562 325.265 639.562 311.322C639.562 297.379 667.543 281.238 699.792 276.931C746.197 270.728 757.268 297.349 757.268 311.322Z" fill="#1D6362"/>
<path d="M757.268 311.322C757.268 325.265 698.415 353.813 698.415 353.813C698.415 353.813 639.562 325.265 639.562 311.322C639.562 311.262 639.562 311.201 639.562 311.141H757.268C757.268 311.171 757.268 311.231 757.268 311.322Z" fill="white"/>
<path d="M763.409 311.021C763.409 326.409 698.414 361.402 698.414 361.402C698.414 361.402 633.42 326.439 633.42 311.021" stroke="white" stroke-width="6" stroke-miterlimit="10"/>
<path d="M748.564 500.951C752.2 500.951 755.146 487.791 755.146 471.59C755.146 455.388 752.2 442.229 748.564 442.229" stroke="white" stroke-width="5" stroke-miterlimit="10" stroke-linecap="round"/>
<path d="M610.478 302.649L559.502 414.102" stroke="white" stroke-width="5" stroke-miterlimit="10"/>
<path d="M599.408 411.542L607.835 472.192" stroke="white" stroke-width="5" stroke-miterlimit="10" stroke-linecap="round"/>
<path d="M695.66 368.539H701.168" stroke="white" stroke-width="5" stroke-miterlimit="10" stroke-linecap="round"/>
<path d="M695.66 375.706H701.168" stroke="white" stroke-width="5" stroke-miterlimit="10" stroke-linecap="round"/>
<path d="M695.66 382.843H701.168" stroke="white" stroke-width="5" stroke-miterlimit="10" stroke-linecap="round"/>
<path d="M695.66 389.98H701.168" stroke="white" stroke-width="5" stroke-miterlimit="10" stroke-linecap="round"/>
<path d="M695.66 397.118H701.168" stroke="white" stroke-width="5" stroke-miterlimit="10" stroke-linecap="round"/>
<path d="M695.66 404.285H701.168" stroke="white" stroke-width="5" stroke-miterlimit="10" stroke-linecap="round"/>
<path d="M695.66 404.616H701.168" stroke="white" stroke-width="5" stroke-miterlimit="10" stroke-linecap="round"/>
<path d="M695.66 411.753H701.168" stroke="white" stroke-width="5" stroke-miterlimit="10" stroke-linecap="round"/>
<path d="M695.66 418.89H701.168" stroke="white" stroke-width="5" stroke-miterlimit="10" stroke-linecap="round"/>
<path d="M695.66 425.696H701.168" stroke="white" stroke-width="5" stroke-miterlimit="10" stroke-linecap="round"/>
<path d="M695.66 432.863H701.168" stroke="white" stroke-width="5" stroke-miterlimit="10" stroke-linecap="round"/>
<path d="M695.66 440H701.168" stroke="white" stroke-width="5" stroke-miterlimit="10" stroke-linecap="round"/>
<path d="M695.66 447.137H701.168" stroke="white" stroke-width="5" stroke-miterlimit="10" stroke-linecap="round"/>
<path d="M695.66 454.274H701.168" stroke="white" stroke-width="5" stroke-miterlimit="10" stroke-linecap="round"/>
<path d="M695.66 461.441H701.168" stroke="white" stroke-width="5" stroke-miterlimit="10" stroke-linecap="round"/>
<path d="M695.66 468.579H701.168" stroke="white" stroke-width="5" stroke-miterlimit="10" stroke-linecap="round"/>
<path d="M695.66 475.716H701.168" stroke="white" stroke-width="5" stroke-miterlimit="10" stroke-linecap="round"/>
<path d="M695.66 482.853H701.168" stroke="white" stroke-width="5" stroke-miterlimit="10" stroke-linecap="round"/>
<path d="M695.66 483.214H701.168" stroke="white" stroke-width="5" stroke-miterlimit="10" stroke-linecap="round"/>
<path d="M695.66 490.352H701.168" stroke="white" stroke-width="5" stroke-miterlimit="10" stroke-linecap="round"/>
<path d="M695.66 497.488H701.168" stroke="white" stroke-width="5" stroke-miterlimit="10" stroke-linecap="round"/>
<path d="M695.082 358.812V472.192" stroke="white" stroke-width="5" stroke-miterlimit="10"/>
<path d="M745.371 442.168H811.605" stroke="white" stroke-width="5" stroke-miterlimit="10" stroke-linecap="round"/>
<path d="M561.072 560.668H772.552L752.668 501.855H583.986L561.072 560.668Z" fill="white" stroke="#66B0F0" stroke-width="6" stroke-miterlimit="10"/>
<path d="M561.072 560.668C561.072 552.357 581.232 537.33 613.977 535.282C649.035 533.114 667.404 557.205 666.881 560.668H561.072Z" fill="#66B0F0"/>
<path d="M666.854 560.668C666.854 560.668 657.545 513.088 575.834 522.784L593.487 475.836C593.487 475.836 660.409 462.526 666.881 501.855L666.854 560.668Z" fill="white" stroke="#66B0F0" stroke-width="6" stroke-miterlimit="10" stroke-linejoin="round"/>
<path d="M771.313 556.964C766.438 549.586 747.656 541.877 719.675 540.13C686.407 538.052 668.175 555.338 666.854 560.036V501.855C666.854 501.855 690.593 472.223 752.668 501.855L771.313 556.964Z" fill="white" stroke="#66B0F0" stroke-width="6" stroke-miterlimit="10" stroke-linejoin="round"/>
<path d="M742.754 532.632C735.814 530.705 727.414 529.259 717.83 528.657C713.066 528.356 708.632 528.506 704.556 528.988C694.449 530.223 686.49 533.535 680.816 537.089" stroke="#66B0F0" stroke-width="6" stroke-miterlimit="10" stroke-linecap="round" stroke-linejoin="round"/>
<path d="M740.302 522.604C733.665 520.887 725.761 519.592 716.838 519.02C712.074 518.719 707.64 518.87 703.564 519.351C693.457 520.586 685.497 523.899 679.824 527.452" stroke="#66B0F0" stroke-width="6" stroke-miterlimit="10" stroke-linecap="round" stroke-linejoin="round"/>
<path d="M738.045 512.606C731.711 511.07 724.358 509.925 716.096 509.383C711.331 509.082 706.897 509.233 702.821 509.715C692.714 510.949 684.755 514.262 679.082 517.815" stroke="#66B0F0" stroke-width="6" stroke-miterlimit="10" stroke-linecap="round" stroke-linejoin="round"/>
<path d="M747.133 499.205L764.648 551.363" stroke="#66B0F0" stroke-width="6" stroke-miterlimit="10"/>
<path d="M772.58 560.668H666.854V560.036C668.175 555.338 686.407 538.052 719.675 540.13C747.656 541.877 766.438 549.586 771.313 556.964L772.58 560.668Z" fill="#66B0F0"/>
<path d="M732.15 311.111C732.15 311.111 712.431 322.344 685.057 317.826C678.254 316.712 670.956 314.604 663.41 311.111V274.853L698.882 250.702L704.197 260.368L732.15 311.111Z" fill="#E57281"/>
<path d="M700.837 253.562C702.958 257.869 703.316 262.988 701.773 267.596L685.057 317.826C678.254 316.712 670.956 314.604 663.41 311.111V274.853L699.047 249.949L700.837 253.562Z" fill="#9A3B82"/>
<path d="M697.781 237.331C697.781 237.331 701.94 196.887 687.151 193.183C675.859 190.353 670.241 199.658 670.241 199.658C670.241 199.658 664.127 189.901 654.653 194.478C645.648 198.815 646.281 212.336 650.33 211.252C654.378 210.168 646.419 201.495 637.909 207.909C628.49 214.986 637.909 226.67 637.909 226.67C637.909 226.67 630.941 222.997 627.719 230.495C623.726 239.8 646.529 259.856 646.529 259.856L697.781 237.331Z" fill="#9A3B82"/>
<path d="M675.253 217.787L651.596 228.176C645.895 230.676 643.114 237.813 645.4 244.016L655.727 272.173C659.528 282.563 670.433 287.622 679.907 283.466L689.739 279.16C699.24 275.004 703.867 263.079 700.066 252.719L689.739 224.563C687.453 218.329 680.926 215.287 675.253 217.787Z" fill="#E57281"/>
<path d="M704.831 250.611L700.066 252.719L694.889 238.626L699.653 236.518C702.49 235.283 705.684 236.789 706.814 239.86L707.888 242.781C709.044 245.853 707.667 249.346 704.831 250.611Z" fill="#E57281"/>
<path d="M650.605 273.257L655.369 271.149L650.55 258.049L645.785 260.157C642.949 261.392 641.599 264.915 642.728 267.987L643.444 269.914C644.574 272.986 647.768 274.492 650.605 273.257Z" fill="#9A3B82"/>
<path d="M699.021 246.094C698.139 243.655 699.213 240.914 701.444 239.92" stroke="#9A3B82" stroke-width="5" stroke-miterlimit="10" stroke-linecap="round"/>
<path d="M675.859 233.055C675.859 233.055 681.45 235.343 688.555 231.669" stroke="#9A3B82" stroke-width="5" stroke-miterlimit="10" stroke-linecap="round"/>
<path d="M664.043 243.354C664.043 243.354 672.388 242.42 675.417 257.778" stroke="#9A3B82" stroke-width="5" stroke-miterlimit="10" stroke-linecap="round"/>
<path d="M687.729 262.778C687.729 262.778 675.419 259.164 675.859 266.12" stroke="#9A3B82" stroke-width="5" stroke-miterlimit="10" stroke-linecap="round"/>
<path d="M686.006 248.534C686.594 248.306 686.654 246.838 686.141 245.255C685.628 243.671 684.736 242.572 684.148 242.8C683.561 243.028 683.5 244.496 684.013 246.079C684.526 247.663 685.418 248.762 686.006 248.534Z" fill="#9A3B82"/>
<path d="M663.291 258.897C663.879 258.67 663.939 257.202 663.427 255.618C662.914 254.035 662.021 252.936 661.433 253.163C660.846 253.391 660.785 254.859 661.298 256.443C661.811 258.026 662.703 259.125 663.291 258.897Z" fill="#9A3B82"/>
<path d="M685.744 254.315C690.14 254.315 693.703 250.419 693.703 245.612C693.703 240.806 690.14 236.909 685.744 236.909C681.349 236.909 677.785 240.806 677.785 245.612C677.785 250.419 681.349 254.315 685.744 254.315Z" stroke="#FFCF2D" stroke-width="5" stroke-miterlimit="10" stroke-linecap="round"/>
<path d="M662.336 264.253C666.732 264.253 670.295 260.356 670.295 255.55C670.295 250.743 666.732 246.847 662.336 246.847C657.94 246.847 654.377 250.743 654.377 255.55C654.377 260.356 657.94 264.253 662.336 264.253Z" stroke="#FFCF2D" stroke-width="5" stroke-miterlimit="10" stroke-linecap="round"/>
<path d="M669.771 252.418L678.171 248.202" stroke="#FFCF2D" stroke-width="5" stroke-miterlimit="10" stroke-linecap="round"/>
<path d="M613.481 293.434C613.013 294.608 610.369 294.909 606.376 294.307C600.262 293.404 590.953 290.483 581.039 285.664C575.366 282.894 570.216 280.063 565.975 277.413C557.905 272.384 553.031 267.987 553.829 266.03C554.628 264.103 560.824 265.036 569.582 268.138C574.292 269.794 579.717 272.083 585.445 274.883C595.25 279.642 603.759 284.279 608.772 287.863C612.187 290.272 613.977 292.229 613.481 293.434Z" fill="white" stroke="#1D6362" stroke-width="6" stroke-miterlimit="10"/>
<path d="M660.217 232.362L652.726 264.013L645.979 245.643C643.39 238.596 646.502 230.525 652.864 227.574L660.217 232.362Z" fill="#9A3B82"/>
<path d="M660.492 231.79L645.621 259.977C643.913 263.229 640.719 265.247 637.276 265.247H621.909C619.65 265.247 617.64 266.753 616.786 269.011L608.8 287.893L606.459 293.404C599.712 292.41 590.32 289.218 581.342 284.851C577.982 283.225 574.705 281.509 571.676 279.792L575.724 270.547L582.967 254.014C586.437 245.07 592.413 237.542 600.042 232.543L615.024 222.696C617.007 221.401 619.292 220.708 621.606 220.708H647.053C648.457 220.708 649.834 221.039 651.074 221.702L658.73 225.677C660.85 226.791 661.649 229.592 660.492 231.79Z" fill="#E57281"/>
<path d="M624.525 232.693H642.702C644.051 232.693 645.373 233.025 646.585 233.657L653.938 237.512C655.949 238.566 656.72 241.276 655.618 243.384" stroke="#9A3B82" stroke-width="5" stroke-miterlimit="10" stroke-linecap="round"/>
<path d="M620.008 241.246H638.184C639.534 241.246 640.856 241.577 642.067 242.21L649.421 246.064C651.431 247.118 652.202 249.829 651.1 251.937" stroke="#9A3B82" stroke-width="5" stroke-miterlimit="10" stroke-linecap="round"/>
<path d="M614.693 252.418H632.87C634.219 252.418 635.541 252.75 636.753 253.382L644.106 257.237C646.117 258.291 646.888 261.001 645.786 263.109" stroke="#9A3B82" stroke-width="5" stroke-miterlimit="10" stroke-linecap="round"/>
<path d="M606.486 293.404C599.739 292.41 590.348 289.218 581.37 284.851C578.01 283.225 574.733 281.509 571.703 279.792L576.275 269.583C579.332 270.848 582.334 272.294 585.693 273.95C595.498 278.708 604.063 283.677 609.075 287.261L606.486 293.404Z" fill="#9A3B82"/>
<path d="M609.322 264.434H622.211" stroke="#9A3B82" stroke-width="5" stroke-miterlimit="10" stroke-linecap="round"/>
<path d="M745.26 501.614C748.895 501.614 751.842 488.172 751.842 471.59C751.842 455.009 748.895 441.566 745.26 441.566C741.625 441.566 738.678 455.009 738.678 471.59C738.678 488.172 741.625 501.614 745.26 501.614Z" fill="white"/>
<path d="M751.842 471.59C751.842 476.74 751.567 481.588 751.043 485.834C749.336 490.592 745.838 494.357 741.432 496.133C739.642 496.856 737.686 497.278 735.648 497.278H710.67C707.53 497.278 704.969 500.078 704.969 503.511V504.355C704.969 509.384 700.067 512.636 695.991 510.287L684.259 503.572C682.166 502.367 680.844 499.988 680.844 497.398V487.37C680.844 483.606 682.469 480.082 685.195 477.824L703.096 463.098C706.125 460.598 709.816 459.273 713.589 459.273H751.236C751.649 463.038 751.842 467.194 751.842 471.59Z" fill="#E57281"/>
<path d="M707.612 468.97L691.171 482.492C688.665 484.569 687.178 487.822 687.178 491.255V500.47C687.178 502.849 688.39 505.047 690.317 506.131" stroke="#9A3B82" stroke-width="5" stroke-miterlimit="10" stroke-linecap="round"/>
<path d="M715.985 473.006L699.544 486.527C697.038 488.605 695.551 491.857 695.551 495.29V504.505C695.551 506.884 696.763 509.083 698.69 510.167" stroke="#9A3B82" stroke-width="5" stroke-miterlimit="10" stroke-linecap="round"/>
<path d="M751.842 471.59C751.842 476.74 751.567 481.588 751.043 485.834C749.336 490.592 745.838 494.357 741.432 496.133C739.752 490.683 738.65 481.739 738.65 471.59C738.65 467.194 738.871 463.038 739.229 459.273H751.264C751.649 463.038 751.842 467.194 751.842 471.59Z" fill="#9A3B82"/>
<path d="M799.68 515.346C816.167 515.346 829.533 514.119 829.533 512.605C829.533 511.092 816.167 509.865 799.68 509.865C783.192 509.865 769.826 511.092 769.826 512.605C769.826 514.119 783.192 515.346 799.68 515.346Z" fill="#FFCF2D"/>
<path d="M824.521 514.683H812.183C800.726 514.683 791.473 504.534 791.473 492.037V472.794H845.258V492.007C845.258 504.534 835.977 514.683 824.521 514.683Z" fill="white" stroke="#FFCF2D" stroke-width="6" stroke-miterlimit="10"/>
<path d="M852.776 489.267H845.23V474.601H852.776C855.999 474.601 858.642 477.462 858.642 481.015V482.883C858.642 486.406 855.999 489.267 852.776 489.267Z" stroke="#FFCF2D" stroke-width="6" stroke-miterlimit="10"/>
<path d="M818.352 478.516C833.333 478.516 845.478 475.86 845.478 472.583C845.478 469.307 833.333 466.651 818.352 466.651C803.37 466.651 791.225 469.307 791.225 472.583C791.225 475.86 803.37 478.516 818.352 478.516Z" fill="#3FB1B5" stroke="white" stroke-width="5" stroke-miterlimit="10"/>
<path d="M791.5 477.402C791.5 480.684 803.535 483.334 818.351 483.334C833.168 483.334 845.203 480.684 845.203 477.402" stroke="#FFCF2D" stroke-width="6" stroke-miterlimit="10"/>
<path d="M791.5 483.696C791.5 486.978 803.535 489.628 818.351 489.628C833.168 489.628 845.203 486.978 845.203 483.696" stroke="#FFCF2D" stroke-width="6" stroke-miterlimit="10"/>
<path d="M791.5 489.99C791.5 493.272 803.535 495.922 818.351 495.922C833.168 495.922 845.203 493.272 845.203 489.99" stroke="#FFCF2D" stroke-width="6" stroke-miterlimit="10"/>
<path d="M791.914 496.284C791.914 499.566 803.756 502.216 818.352 502.216C832.949 502.216 844.791 499.566 844.791 496.284" stroke="#FFCF2D" stroke-width="6" stroke-miterlimit="10"/>
<path d="M793.979 502.577C793.979 505.86 804.884 508.51 818.351 508.51C831.818 508.51 842.724 505.86 842.724 502.577" stroke="#FFCF2D" stroke-width="6" stroke-miterlimit="10"/>
<path d="M817.278 462.043C814.634 460.056 806.399 441.114 816.589 433.375C824.41 427.412 825.925 442.861 822.317 441.566C816.038 439.307 812.21 409.072 828.597 410.939C835.812 411.753 835.013 422.985 828.597 423.286" stroke="white" stroke-width="5" stroke-miterlimit="10" stroke-linecap="round"/>
<path d="M496.987 550.519H361.628C357.993 550.519 354.743 548.11 353.393 544.436L316.352 444.336C314.59 439.548 317.812 434.308 322.521 434.308H457.88C461.515 434.308 464.765 436.717 466.115 440.391L503.156 540.491C504.946 545.279 501.724 550.519 496.987 550.519Z" fill="white" stroke="#FFCF2D" stroke-width="6" stroke-miterlimit="10"/>
<path d="M490.709 551.242H361.574C358.131 551.242 355.019 548.953 353.725 545.46L318.391 449.968C316.711 445.39 319.768 440.421 324.284 440.421H453.419C456.862 440.421 459.974 442.71 461.268 446.203L496.602 541.696C498.282 546.273 495.198 551.242 490.709 551.242Z" fill="#FFCF2D"/>
<path d="M411.42 507.817C407.62 507.817 404.04 506.191 401.341 503.24C399.138 500.83 397.926 497.638 397.926 494.266C397.926 490.863 399.138 487.671 401.341 485.292C403.131 483.334 405.527 482.25 408.06 482.25C410.594 482.25 412.99 483.334 414.78 485.292C417.837 488.634 417.837 494.055 414.78 497.397C412.247 500.168 408.143 500.168 405.609 497.397C405.169 496.916 405.169 496.163 405.609 495.681C406.05 495.199 406.739 495.199 407.179 495.681C408.859 497.518 411.558 497.518 413.238 495.681C415.441 493.272 415.441 489.387 413.238 486.978C411.861 485.472 410.016 484.629 408.06 484.629C406.105 484.629 404.26 485.472 402.883 486.978C401.093 488.935 400.129 491.495 400.129 494.266C400.129 497.006 401.12 499.596 402.883 501.553C405.169 504.053 408.171 505.408 411.393 505.408C414.615 505.408 417.644 504.053 419.903 501.553C420.343 501.071 421.032 501.071 421.472 501.553C421.913 502.035 421.913 502.788 421.472 503.27C418.801 506.191 415.221 507.817 411.42 507.817Z" fill="white"/>
<path d="M545.43 561.119H361.793C359.672 561.119 357.965 559.252 357.965 556.934V554.916C357.965 552.597 359.672 550.73 361.793 550.73H545.43C547.55 550.73 549.258 552.597 549.258 554.916V556.934C549.23 559.252 547.523 561.119 545.43 561.119Z" fill="white" stroke="#FFCF2D" stroke-width="6" stroke-miterlimit="10"/>
</svg>
